<?xml version="1.0"?><svg version="1.2" baseProfile="tiny-ps" viewBox="0 0 300 300" xmlns="http://www.w3.org/2000/svg" xmlns:xlink="http://www.w3.org/1999/xlink"><title>StarVFX</title><g><g fill="#fff" transform="matrix(.1 0 0 -.1 0 300)"><path d="M0 1500V0h3000v3000H0V1500z"/></g><g fill="#ddd" transform="matrix(.1 0 0 -.1 0 300)"><path d="M1487 2283c-2-4-21-60-42-123-54-163-154-423-168-437l-12-11-195-12c-107-6-239-10-295-8l-100 3v-11c0-7 54-51 120-99 133-97 259-195 319-247l40-35-23-94c-13-52-52-182-87-290s-64-199-64-203c0-17 33 3 173 103 170 122 327 221 348 221 17 0 224-133 381-246 107-77 138-95 138-78 0 4-24 81-54 173-30 91-66 216-80 276-15 61-29 115-31 122l-4 12 77 67c42 36 149 120 237 186s160 125 160 131v10l-245 3c-135 2-272 7-304 11l-59 8-35 80c-18 44-64 172-102 285l-67 204-11 4c-5 1-12-1-15-5z"/></g><g fill="#b1b1b1" transform="matrix(.1 0 0 -.1 0 300)"><path d="M1444 2138c-74-225-144-412-159-427l-13-14-296-5-296-5v-7c0-5 60-51 133-103 72-52 180-132 240-178l107-83v-21c0-23-61-231-126-428-25-75-44-141-42-147l3-10 125 91c69 51 178 127 242 170l117 79h43l138-95c77-52 185-128 242-170l103-76 3 10c2 5-22 87-52 183-30 95-69 221-85 281l-30 108 5 14c7 17 200 170 367 290 59 42 107 81 107 85v8l-295 4-295 4-19 19-18 20-47 130c-25 72-66 194-91 273l-46 142h-17l-48-142z"/></g><g fill="#818181" transform="matrix(.1 0 0 -.1 0 300)"><path d="m1401 1990-92-280-19-10-19-10H680v-7c0-5 78-63 173-130 94-68 204-146 242-175l70-53 3-26 3-27-90-273c-50-150-88-275-86-277s112 75 245 172l241 176h18c9 0 35-13 57-28 21-16 130-95 242-176 112-82 205-146 207-144s-37 128-87 281l-90 277 6 24 6 25 163 118c89 66 197 144 239 174 43 30 78 57 78 61v7l-300-1-300-2-19 20-19 19-72 225c-39 124-78 246-87 273-8 26-18 47-22 47-5 0-49-126-100-280z"/></g><g fill="#434343" transform="matrix(.1 0 0 -.1 0 300)"><path d="M1490 2255c0-2-36-125-80-272l-80-268-24-21-24-21-299 4-298 5 10-9c10-10 190-137 377-267l98-67 11-20 11-21-97-279c-54-154-95-283-92-286s110 74 238 171l232 176h55l74-56c258-198 390-295 395-291 4 5-60 199-151 453l-37 101 10 27 11 26 42 30c329 227 425 294 433 302l10 10-298-4-299-5-23 19-24 18-16 58c-9 31-46 155-82 275l-66 217h-8c-5 0-9-2-9-5z"/></g><g fill="#030303" transform="matrix(.1 0 0 -.1 0 300)"><path d="M1470 2163c-12-43-44-163-71-267l-49-189-15-24-15-23-25-6-26-6-107 11c-59 6-188 14-287 17l-180 6 25-21c25-22 338-231 426-286l49-30 9-26 9-26-46-109c-55-132-159-423-155-435l3-9 120 92c66 50 161 126 210 168 50 42 102 85 117 94l28 18 24-6 24-6 124-104c159-133 322-258 326-248 4 12-78 239-143 397-30 74-55 145-55 158v23l19 21c11 12 60 45 108 74s155 98 238 153l149 101-64 3c-65 3-373-12-482-24l-56-7-25 25-25 25-26 114c-34 148-117 429-126 429-4 0-17-35-30-77z"/></g></g></svg>